<?xml version="1.0" encoding="UTF-8"?>
<svg xmlns="http://www.w3.org/2000/svg" viewBox="0 0 515 217.77" width="515" height="217.77" role="img" aria-labelledby="titre desc">
  <title id="titre">Quai des Cartes — logo empilé, direction B</title>
  <desc id="desc">Nom de travail NON VALIDÉ. Lettrage original construit à la main en contours pleins (aucune police, aucun personnage, symbole ou typographie de licence). Voir logo/REGLES_LOGO.md.</desc>
  <path fill="#0B0B12" d="M76 67.77A38 38 0 1 1 0 67.77A38 38 0 1 1 76 67.77ZM58 67.77A20 20 0 1 0 18 67.77A20 20 0 1 0 58 67.77ZM58 38.77L76 38.77L76 122.77L58 122.77ZM76 38.77A9 9 0 1 1 58 38.77A9 9 0 1 1 76 38.77ZM76 122.77A9 9 0 1 1 58 122.77A9 9 0 1 1 76 122.77ZM83 38.77L101 38.77L101 67.77L83 67.77ZM101 38.77A9 9 0 1 1 83 38.77A9 9 0 1 1 101 38.77ZM159 67.77A38 38 0 0 1 83 67.77L101 67.77A20 20 0 0 0 141 67.77ZM141 38.77L159 38.77L159 96.77L141 96.77ZM159 38.77A9 9 0 1 1 141 38.77A9 9 0 1 1 159 38.77ZM159 96.77A9 9 0 1 1 141 96.77A9 9 0 1 1 159 96.77ZM242 67.77A38 38 0 1 1 166 67.77A38 38 0 1 1 242 67.77ZM224 67.77A20 20 0 1 0 184 67.77A20 20 0 1 0 224 67.77ZM224 38.77L242 38.77L242 96.77L224 96.77ZM242 38.77A9 9 0 1 1 224 38.77A9 9 0 1 1 242 38.77ZM242 96.77A9 9 0 1 1 224 96.77A9 9 0 1 1 242 96.77ZM249 38.77L267 38.77L267 96.77L249 96.77ZM267 38.77A9 9 0 1 1 249 38.77A9 9 0 1 1 267 38.77ZM267 96.77A9 9 0 1 1 249 96.77A9 9 0 1 1 267 96.77ZM371 67.77A38 38 0 1 1 295 67.77A38 38 0 1 1 371 67.77ZM353 67.77A20 20 0 1 0 313 67.77A20 20 0 1 0 353 67.77ZM353 14.77L371 14.77L371 96.77L353 96.77ZM371 14.77A9 9 0 1 1 353 14.77A9 9 0 1 1 371 14.77ZM371 96.77A9 9 0 1 1 353 96.77A9 9 0 1 1 371 96.77ZM448.91 86.77A38 38 0 1 1 454 67.77L436 67.77A20 20 0 1 0 433.32 77.77ZM382 58.77L453 58.77L453 76.77L382 76.77ZM450.11 82.27A9 9 0 1 1 432.11 82.27A9 9 0 1 1 450.11 82.27ZM488 76.77A27 23.5 0 1 1 513.37 45.23L496.46 51.39A9 5.5 0 1 0 488 58.77ZM488 58.77A27 23.5 0 1 1 462.63 90.31L479.54 84.15A9 5.5 0 1 0 488 76.77ZM513.91 48.31A9 9 0 1 1 495.91 48.31A9 9 0 1 1 513.91 48.31ZM480.09 87.23A9 9 0 1 1 462.09 87.23A9 9 0 1 1 480.09 87.23ZM67.11 204.2A38 38 0 1 1 67.11 155.35L53.32 166.92A20 20 0 1 0 53.32 192.63ZM69.22 198.41A9 9 0 1 1 51.22 198.41A9 9 0 1 1 69.22 198.41ZM69.22 161.13A9 9 0 1 1 51.22 161.13A9 9 0 1 1 69.22 161.13ZM153 179.77A38 38 0 1 1 77 179.77A38 38 0 1 1 153 179.77ZM135 179.77A20 20 0 1 0 95 179.77A20 20 0 1 0 135 179.77ZM135 150.77L153 150.77L153 208.77L135 208.77ZM153 150.77A9 9 0 1 1 135 150.77A9 9 0 1 1 153 150.77ZM153 208.77A9 9 0 1 1 135 208.77A9 9 0 1 1 153 208.77ZM160 150.77L178 150.77L178 208.77L160 208.77ZM178 150.77A9 9 0 1 1 160 150.77A9 9 0 1 1 178 150.77ZM178 208.77A9 9 0 1 1 160 208.77A9 9 0 1 1 178 208.77ZM160 179.77A38 38 0 0 1 217 146.86L208 162.45A20 20 0 0 0 178 179.77ZM221.5 154.66A9 9 0 1 1 203.5 154.66A9 9 0 1 1 221.5 154.66ZM239 129.77L257 129.77L257 208.77L239 208.77ZM257 129.77A9 9 0 1 1 239 129.77A9 9 0 1 1 257 129.77ZM257 208.77A9 9 0 1 1 239 208.77A9 9 0 1 1 257 208.77ZM234 141.77L270 141.77L270 159.77L234 159.77ZM243 150.77A9 9 0 1 1 225 150.77A9 9 0 1 1 243 150.77ZM279 150.77A9 9 0 1 1 261 150.77A9 9 0 1 1 279 150.77ZM353.91 198.77A38 38 0 1 1 359 179.77L341 179.77A20 20 0 1 0 338.32 189.77ZM287 170.77L358 170.77L358 188.77L287 188.77ZM355.11 194.27A9 9 0 1 1 337.11 194.27A9 9 0 1 1 355.11 194.27ZM393 188.77A27 23.5 0 1 1 418.37 157.23L401.46 163.39A9 5.5 0 1 0 393 170.77ZM393 170.77A27 23.5 0 1 1 367.63 202.31L384.54 196.15A9 5.5 0 1 0 393 188.77ZM418.91 160.31A9 9 0 1 1 400.91 160.31A9 9 0 1 1 418.91 160.31ZM385.09 199.23A9 9 0 1 1 367.09 199.23A9 9 0 1 1 385.09 199.23Z"/>
  <path fill="#5A31F4" d="M251.81 1.95L260.61 0.08A3.5 3.5 0 0 1 264.77 2.77L267.88 17.44A3.5 3.5 0 0 1 265.19 21.6L256.39 23.47A3.5 3.5 0 0 1 252.23 20.77L249.12 6.1A3.5 3.5 0 0 1 251.81 1.95Z"/>
</svg>
